<svg width="44" height="44" viewBox="0 0 44 44" fill="none" xmlns="http://www.w3.org/2000/svg">
<path d="M44 22C44 34.1503 34.1503 44 22 44C9.84974 44 0 34.1503 0 22C0 9.84974 9.84974 0 22 0C34.1503 0 44 9.84974 44 22Z" fill="black"/>
<path d="M12.7148 13.9805L12.873 16.1074C14.2207 14.4551 16.043 13.6289 18.3398 13.6289C20.7891 13.6289 22.4707 14.5957 23.3848 16.5293C24.7207 14.5957 26.625 13.6289 29.0977 13.6289C31.1602 13.6289 32.6953 14.2324 33.7031 15.4395C34.7109 16.6348 35.2148 18.4395 35.2148 20.8535V33H30.1172V20.8711C30.1172 19.793 29.9062 19.0078 29.4844 18.5156C29.0625 18.0117 28.3184 17.7598 27.252 17.7598C25.7285 17.7598 24.6738 18.4863 24.0879 19.9395L24.1055 33H19.0254V20.8887C19.0254 19.7871 18.8086 18.9902 18.375 18.498C17.9414 18.0059 17.2031 17.7598 16.1602 17.7598C14.7188 17.7598 13.6758 18.3574 13.0312 19.5527V33H7.95117V13.9805H12.7148Z" fill="white"/>
</svg>
